<svg xmlns="http://www.w3.org/2000/svg" width="100%" height="100%" viewBox="0 0 42 38" fill="none">
  <path fill="#94C748"
    d="M38.961 16.614 35.88 35.44c-.201 1.14-1.005 1.809-2.144 1.809H7.609c-1.14 0-1.943-.67-2.144-1.809L.038 1.876C-.162.736.44 0 1.512 0h38.32c1.072 0 1.675.737 1.474 1.876l-1.474 8.843c-.2 1.273-.938 1.809-2.144 1.809H14.643c-.335 0-.536.2-.47.603l1.81 11.12c.067.268.268.47.536.47h8.307c.268 0 .469-.202.536-.47l1.273-8.039c.133-1.005.803-1.407 1.741-1.407h9.044c1.34 0 1.742.67 1.541 1.81" />
</svg>