<svg xmlns="http://www.w3.org/2000/svg" fill="none" viewBox="0 0 16 16">
<path d="M4.12012 6.58789H4.23438C4.45378 6.05668 4.80843 5.64061 5.29785 5.33984C5.78725 5.03528 6.40141 4.88281 7.13965 4.88281C7.81455 4.88288 8.40328 5.01959 8.90527 5.29297C9.41147 5.56248 9.8036 5.95128 10.082 6.45898C10.3647 6.96289 10.5042 7.56641 10.5 8.26953V9H7.80371V8.71484C7.80793 8.16016 7.65567 7.72852 7.34766 7.41992C7.04387 7.11146 6.61774 6.95703 6.06934 6.95703C5.70235 6.95706 5.37736 7.02933 5.09473 7.17383C4.81631 7.31836 4.59683 7.52934 4.43652 7.80664C4.28043 8.08006 4.20051 8.41019 4.19629 8.79688V14H1.5V2H4.12012V6.58789Z" fill="var(--file-icon-blue, #0ea5e9)"/>
<path d="M8.61328 11.4131H10.0361V12.6123H8.61328V14.0361H7.41406V12.6123H6V11.4131H7.41406V10H8.61328V11.4131Z" fill="var(--file-icon-blue, #0ea5e9)"/>
<path d="M13.6538 11.4131H15.0767V12.6123H13.6538V14.0361H12.4546V12.6123H11.0405V11.4131H12.4546V9.99997H13.6538V11.4131Z" fill="var(--file-icon-blue, #0ea5e9)"/>
</svg>
