<svg xmlns="http://www.w3.org/2000/svg" width="660" height="416" viewBox="0 0 660 416">
  <rect x="0" y="0" width="660" height="416" fill="#000000" />
  <rect x="10" y="64" width="640" height="18" fill="#45475A" />
  <rect x="10" y="388" width="80" height="18" fill="#555555" />
  <g font-family="Menlo, Monaco, 'Courier New', monospace" font-size="14" xml:space="preserve">
    <text x="10 18" y="24" style="fill:#CCCCCC;">╭┄</text>
    <text x="26 34" y="24" style="fill:#0000AA;font-weight:bold;">zz</text>
    <text x="50" y="24" style="fill:#CCCCCC;">[</text>
    <text x="58 66 74 82 90 98 106 114 122 130 138" y="24" style="fill:#00AAAA;">uncommitted</text>
    <text x="146" y="24" style="fill:#CCCCCC;">]</text>
    <text x="162 170 178" y="24" style="fill:#CCCCCC;opacity:0.75;">(no</text>
    <text x="194 202 210 218 226 234 242 250" y="24" style="fill:#CCCCCC;opacity:0.75;">changes)</text>
    <text x="10" y="42" style="fill:#CCCCCC;">┊</text>
    <text x="10 18 26" y="60" style="fill:#CCCCCC;">┊╭┄</text>
    <text x="34 42" y="60" style="fill:#0000AA;font-weight:bold;">g0</text>
    <text x="58" y="60" style="fill:#CCCCCC;">[</text>
    <text x="66" y="60" style="fill:#00AA00;">A</text>
    <text x="74" y="60" style="fill:#CCCCCC;">]</text>
    <text x="10 18" y="78" style="fill:#FFFFFF;font-weight:bold;">┊●</text>
    <text x="50" y="78" style="fill:#AA00AA;font-weight:bold;">t</text>
    <text x="58 66" y="78" style="fill:#FFFFFF;font-weight:bold;opacity:0.75;">pm</text>
    <text x="82 90 98" y="78" style="fill:#FFFFFF;font-weight:bold;">add</text>
    <text x="114" y="78" style="fill:#FFFFFF;font-weight:bold;">A</text>
    <text x="10 18" y="96" style="fill:#CCCCCC;">├╯</text>
    <text x="10" y="114" style="fill:#CCCCCC;">┊</text>
    <text x="10" y="132" style="fill:#CCCCCC;">┴</text>
    <text x="26 34 42 50 58 66 74" y="132" style="fill:#CCCCCC;opacity:0.75;">0dc3733</text>
    <text x="90 98 106 114 122 130 138" y="132" style="fill:#CCCCCC;">(common</text>
    <text x="154 162 170 178 186" y="132" style="fill:#CCCCCC;">base)</text>
    <text x="202 210 218 226 234 242 250 258 266 274" y="132" style="fill:#CCCCCC;opacity:0.75;">2000-01-02</text>
    <text x="290 298 306" y="132" style="fill:#CCCCCC;">add</text>
    <text x="322" y="132" style="fill:#CCCCCC;">M</text>
    <text x="26 34 42 50 58 66" y="402" style="fill:#FFFFFF;">normal</text>
    <text x="98 106 114" y="402" style="fill:#0000AA;">↑/k</text>
    <text x="130 138" y="402" style="fill:#CCCCCC;opacity:0.75;">up</text>
    <text x="154" y="402" style="fill:#CCCCCC;opacity:0.75;">•</text>
    <text x="170 178 186" y="402" style="fill:#0000AA;">↓/j</text>
    <text x="202 210 218 226" y="402" style="fill:#CCCCCC;opacity:0.75;">down</text>
    <text x="242" y="402" style="fill:#CCCCCC;opacity:0.75;">•</text>
    <text x="258" y="402" style="fill:#0000AA;">r</text>
    <text x="274 282 290" y="402" style="fill:#CCCCCC;opacity:0.75;">rub</text>
    <text x="306" y="402" style="fill:#CCCCCC;opacity:0.75;">•</text>
    <text x="322" y="402" style="fill:#0000AA;">c</text>
    <text x="338 346 354 362 370 378" y="402" style="fill:#CCCCCC;opacity:0.75;">commit</text>
    <text x="394" y="402" style="fill:#CCCCCC;opacity:0.75;">•</text>
    <text x="410" y="402" style="fill:#0000AA;">m</text>
    <text x="426 434 442 450" y="402" style="fill:#CCCCCC;opacity:0.75;">move</text>
    <text x="466" y="402" style="fill:#CCCCCC;opacity:0.75;">•</text>
    <text x="482" y="402" style="fill:#0000AA;">?</text>
    <text x="498 506 514 522" y="402" style="fill:#CCCCCC;opacity:0.75;">help</text>
    <text x="538" y="402" style="fill:#CCCCCC;opacity:0.75;">•</text>
    <text x="554" y="402" style="fill:#0000AA;">q</text>
    <text x="570 578 586 594" y="402" style="fill:#CCCCCC;opacity:0.75;">quit</text>
  </g>
</svg>
