<svg xmlns="http://www.w3.org/2000/svg" width="820" height="380" viewBox="0 0 820 380">
  <rect x="0" y="0" width="820" height="380" fill="#000000" />
  <rect x="26" y="64" width="16" height="18" fill="#0000AA" />
  <rect x="18" y="154" width="792" height="18" fill="#2D5B2D" />
  <rect x="26" y="208" width="16" height="18" fill="#0000AA" />
  <rect x="18" y="298" width="792" height="18" fill="#2D5B2D" />
  <rect x="10" y="352" width="88" height="18" fill="#FFA500" />
  <g font-family="Menlo, Monaco, 'Courier New', monospace" font-size="14" xml:space="preserve">
    <text x="18" y="24" style="fill:#CCCCCC;">2</text>
    <text x="34 42 50 58 66" y="24" style="fill:#CCCCCC;">files</text>
    <text x="82 90 98 106 114 122 130 138" y="24" style="fill:#CCCCCC;">changed,</text>
    <text x="154 162" y="24" style="fill:#00AA00;">+2</text>
    <text x="178 186" y="24" style="fill:#AA0000;">-0</text>
    <text x="18 26 34 42 50 58 66 74 82 90 98 106 114" y="60" style="fill:#555555;">────────────╮</text>
    <text x="26" y="78" style="fill:#000000;">✔︎</text>
    <text x="50 58 66" y="78" style="fill:#0000AA;">k:c</text>
    <text x="82 90 98" y="78" style="fill:#CCCCCC;">one</text>
    <text x="114" y="78" style="fill:#555555;">│</text>
    <text x="18 26 34 42 50 58 66 74 82 90 98 106 114" y="96" style="fill:#555555;">────────────╯</text>
    <text x="18 26" y="132" style="fill:#CCCCCC;opacity:0.75;">@@</text>
    <text x="42 50 58 66" y="132" style="fill:#CCCCCC;opacity:0.75;">-1,0</text>
    <text x="82 90 98 106" y="132" style="fill:#CCCCCC;opacity:0.75;">+1,1</text>
    <text x="122 130" y="132" style="fill:#CCCCCC;opacity:0.75;">@@</text>
    <text x="18 26 34 42 50 58 66 74 82 90 98 106 114 122 130" y="150" style="fill:#555555;">───────────────</text>
    <text x="34" y="168" style="fill:#555555;">┊</text>
    <text x="50" y="168" style="fill:#00AA00;">1</text>
    <text x="66" y="168" style="fill:#555555;">│</text>
    <text x="82" y="168" style="fill:#CCCCCC;">+</text>
    <text x="90 98 106 114" y="168" style="fill:#F8F8F2;">line</text>
    <text x="10" y="204" style="fill:#0000AA;">▌</text>
    <text x="18 26 34 42 50 58 66 74 82 90 98 106 114 122 130 138" y="204" style="fill:#555555;">───────────────╮</text>
    <text x="10" y="222" style="fill:#0000AA;">▌</text>
    <text x="26" y="222" style="fill:#000000;">✔︎</text>
    <text x="50 58 66 74 82 90" y="222" style="fill:#0000AA;">twop:c</text>
    <text x="106 114 122" y="222" style="fill:#CCCCCC;">two</text>
    <text x="138" y="222" style="fill:#555555;">│</text>
    <text x="10" y="240" style="fill:#0000AA;">▌</text>
    <text x="18 26 34 42 50 58 66 74 82 90 98 106 114 122 130 138" y="240" style="fill:#555555;">───────────────╯</text>
    <text x="10" y="258" style="fill:#0000AA;">▌</text>
    <text x="10" y="276" style="fill:#0000AA;">▌</text>
    <text x="18 26" y="276" style="fill:#CCCCCC;opacity:0.75;">@@</text>
    <text x="42 50 58 66" y="276" style="fill:#CCCCCC;opacity:0.75;">-1,0</text>
    <text x="82 90 98 106" y="276" style="fill:#CCCCCC;opacity:0.75;">+1,1</text>
    <text x="122 130" y="276" style="fill:#CCCCCC;opacity:0.75;">@@</text>
    <text x="10" y="294" style="fill:#0000AA;">▌</text>
    <text x="18 26 34 42 50 58 66 74 82 90 98 106 114 122 130" y="294" style="fill:#555555;">───────────────</text>
    <text x="10" y="312" style="fill:#0000AA;">▌</text>
    <text x="34" y="312" style="fill:#555555;">┊</text>
    <text x="50" y="312" style="fill:#00AA00;">1</text>
    <text x="66" y="312" style="fill:#555555;">│</text>
    <text x="82" y="312" style="fill:#CCCCCC;">+</text>
    <text x="90 98 106 114" y="312" style="fill:#F8F8F2;">line</text>
    <text x="26 34 42 50 58 66 74" y="366" style="fill:#000000;">details</text>
    <text x="106 114 122" y="366" style="fill:#0000AA;">↓/j</text>
    <text x="138 146 154 162" y="366" style="fill:#CCCCCC;opacity:0.75;">next</text>
    <text x="178 186 194 202" y="366" style="fill:#CCCCCC;opacity:0.75;">hunk</text>
    <text x="218" y="366" style="fill:#CCCCCC;opacity:0.75;">•</text>
    <text x="234 242 250" y="366" style="fill:#0000AA;">↑/k</text>
    <text x="266 274 282 290" y="366" style="fill:#CCCCCC;opacity:0.75;">prev</text>
    <text x="306 314 322 330" y="366" style="fill:#CCCCCC;opacity:0.75;">hunk</text>
    <text x="346" y="366" style="fill:#CCCCCC;opacity:0.75;">•</text>
    <text x="362 370 378 386 394 402 410 418 426" y="366" style="fill:#0000AA;">shift+↑/k</text>
    <text x="442 450 458 466 474 482" y="366" style="fill:#CCCCCC;opacity:0.75;">scroll</text>
    <text x="498 506" y="366" style="fill:#CCCCCC;opacity:0.75;">up</text>
    <text x="522" y="366" style="fill:#CCCCCC;opacity:0.75;">•</text>
    <text x="538" y="366" style="fill:#0000AA;">?</text>
    <text x="554 562 570 578" y="366" style="fill:#CCCCCC;opacity:0.75;">help</text>
    <text x="594" y="366" style="fill:#CCCCCC;opacity:0.75;">•</text>
    <text x="610" y="366" style="fill:#0000AA;">q</text>
    <text x="626 634 642 650" y="366" style="fill:#CCCCCC;opacity:0.75;">quit</text>
  </g>
</svg>
