<svg xmlns="http://www.w3.org/2000/svg" width="820" height="380" viewBox="0 0 820 380">
  <rect x="0" y="0" width="820" height="380" fill="#000000" />
  <rect x="10" y="64" width="48" height="18" fill="#45475A" />
  <rect x="58" y="64" width="8" height="18" fill="#AA0000" />
  <rect x="66" y="64" width="744" height="18" fill="#45475A" />
  <rect x="74" y="82" width="8" height="18" fill="#FFFFFF" />
  <rect x="10" y="352" width="64" height="18" fill="#0000AA" />
  <g font-family="Menlo, Monaco, 'Courier New', monospace" font-size="14" xml:space="preserve">
    <text x="10 18" y="24" style="fill:#CCCCCC;">╭┄</text>
    <text x="26 34" y="24" style="fill:#0000AA;font-weight:bold;opacity:0.75;">zz</text>
    <text x="50" y="24" style="fill:#CCCCCC;opacity:0.75;">[</text>
    <text x="58 66 74 82 90 98 106 114 122 130 138" y="24" style="fill:#00AAAA;opacity:0.75;">uncommitted</text>
    <text x="146" y="24" style="fill:#CCCCCC;opacity:0.75;">]</text>
    <text x="162 170 178" y="24" style="fill:#CCCCCC;opacity:0.75;">(no</text>
    <text x="194 202 210 218 226 234 242 250" y="24" style="fill:#CCCCCC;opacity:0.75;">changes)</text>
    <text x="10" y="42" style="fill:#CCCCCC;">┊</text>
    <text x="10 18 26" y="60" style="fill:#CCCCCC;">┊╭┄</text>
    <text x="34 42" y="60" style="fill:#0000AA;font-weight:bold;opacity:0.75;">g0</text>
    <text x="58" y="60" style="fill:#CCCCCC;opacity:0.75;">[</text>
    <text x="66" y="60" style="fill:#00AA00;opacity:0.75;">A</text>
    <text x="74" y="60" style="fill:#CCCCCC;opacity:0.75;">]</text>
    <text x="10 18" y="78" style="fill:#FFFFFF;font-weight:bold;">┊●</text>
    <text x="50" y="78" style="fill:#0000AA;font-weight:bold;">9</text>
    <text x="58" y="78" style="fill:#000000;font-weight:bold;">4</text>
    <text x="66 74 82 90 98" y="78" style="fill:#FFFFFF;font-weight:bold;opacity:0.75;">77ae7</text>
    <text x="114 122 130" y="78" style="fill:#FFFFFF;font-weight:bold;">add</text>
    <text x="146" y="78" style="fill:#FFFFFF;font-weight:bold;">A</text>
    <text x="10 18" y="96" style="fill:#CCCCCC;">┊│</text>
    <text x="66" y="96" style="fill:#0000AA;font-weight:bold;">9</text>
    <text x="74" y="96" style="fill:#000000;">:</text>
    <text x="82" y="96" style="fill:#0000AA;font-weight:bold;">t</text>
    <text x="98" y="96" style="fill:#CCCCCC;">A</text>
    <text x="114" y="96" style="fill:#00AA00;">A</text>
    <text x="10 18" y="114" style="fill:#CCCCCC;">├╯</text>
    <text x="10" y="132" style="fill:#CCCCCC;">┊</text>
    <text x="10 18 26" y="150" style="fill:#CCCCCC;">┊╭┄</text>
    <text x="34 42" y="150" style="fill:#0000AA;font-weight:bold;opacity:0.75;">h0</text>
    <text x="58" y="150" style="fill:#CCCCCC;opacity:0.75;">[</text>
    <text x="66" y="150" style="fill:#00AA00;opacity:0.75;">C</text>
    <text x="74" y="150" style="fill:#CCCCCC;opacity:0.75;">]</text>
    <text x="10 18" y="168" style="fill:#CCCCCC;">┊●</text>
    <text x="50" y="168" style="fill:#0000AA;font-weight:bold;opacity:0.75;">3</text>
    <text x="58 66 74 82 90 98" y="168" style="fill:#CCCCCC;opacity:0.75;">842fc0</text>
    <text x="114 122 130" y="168" style="fill:#CCCCCC;opacity:0.75;">add</text>
    <text x="146" y="168" style="fill:#CCCCCC;opacity:0.75;">C</text>
    <text x="10 18" y="186" style="fill:#CCCCCC;">┊│</text>
    <text x="66 74 82" y="186" style="fill:#0000AA;font-weight:bold;opacity:0.75;">3:w</text>
    <text x="98" y="186" style="fill:#CCCCCC;opacity:0.75;">A</text>
    <text x="114" y="186" style="fill:#00AA00;opacity:0.75;">C</text>
    <text x="10 18" y="204" style="fill:#CCCCCC;">┊│</text>
    <text x="10 18 26" y="222" style="fill:#CCCCCC;">┊├┄</text>
    <text x="34 42" y="222" style="fill:#0000AA;font-weight:bold;opacity:0.75;">i0</text>
    <text x="58" y="222" style="fill:#CCCCCC;opacity:0.75;">[</text>
    <text x="66" y="222" style="fill:#00AA00;opacity:0.75;">B</text>
    <text x="74" y="222" style="fill:#CCCCCC;opacity:0.75;">]</text>
    <text x="10 18" y="240" style="fill:#CCCCCC;">┊●</text>
    <text x="50" y="240" style="fill:#0000AA;font-weight:bold;opacity:0.75;">d</text>
    <text x="58 66 74 82 90 98" y="240" style="fill:#CCCCCC;opacity:0.75;">3e2ba3</text>
    <text x="114 122 130" y="240" style="fill:#CCCCCC;opacity:0.75;">add</text>
    <text x="146" y="240" style="fill:#CCCCCC;opacity:0.75;">B</text>
    <text x="10 18" y="258" style="fill:#CCCCCC;">┊│</text>
    <text x="66 74 82" y="258" style="fill:#0000AA;font-weight:bold;opacity:0.75;">d:p</text>
    <text x="98" y="258" style="fill:#CCCCCC;opacity:0.75;">A</text>
    <text x="114" y="258" style="fill:#00AA00;opacity:0.75;">B</text>
    <text x="10 18" y="276" style="fill:#CCCCCC;">├╯</text>
    <text x="10" y="294" style="fill:#CCCCCC;">┊</text>
    <text x="10" y="312" style="fill:#CCCCCC;">┴</text>
    <text x="26 34 42 50 58 66 74" y="312" style="fill:#CCCCCC;opacity:0.75;">0dc3733</text>
    <text x="90 98 106 114 122 130 138" y="312" style="fill:#CCCCCC;opacity:0.75;">(common</text>
    <text x="154 162 170 178 186" y="312" style="fill:#CCCCCC;opacity:0.75;">base)</text>
    <text x="202 210 218 226 234 242 250 258 266 274" y="312" style="fill:#CCCCCC;opacity:0.75;">2000-01-02</text>
    <text x="290 298 306" y="312" style="fill:#CCCCCC;opacity:0.75;">add</text>
    <text x="322" y="312" style="fill:#CCCCCC;opacity:0.75;">M</text>
    <text x="26 34 42 50" y="366" style="fill:#000000;">jump</text>
    <text x="82" y="366" style="fill:#CCCCCC;">/</text>
    <text x="98" y="366" style="fill:#CCCCCC;">9</text>
  </g>
</svg>
