<svg xmlns="http://www.w3.org/2000/svg" width="820" height="380" viewBox="0 0 820 380">
  <rect x="0" y="0" width="820" height="380" fill="#000000" />
  <rect x="10" y="46" width="32" height="18" fill="#45475A" />
  <rect x="42" y="46" width="96" height="18" fill="#555555" />
  <rect x="138" y="46" width="8" height="18" fill="#45475A" />
  <rect x="146" y="46" width="80" height="18" fill="#00AAAA" />
  <rect x="226" y="46" width="584" height="18" fill="#45475A" />
  <rect x="10" y="352" width="64" height="18" fill="#00AAAA" />
  <g font-family="Menlo, Monaco, 'Courier New', monospace" font-size="14" xml:space="preserve">
    <text x="10 18" y="24" style="fill:#CCCCCC;">╭┄</text>
    <text x="34 42" y="24" style="fill:#0000AA;font-weight:bold;opacity:0.75;">zz</text>
    <text x="58" y="24" style="fill:#CCCCCC;opacity:0.75;">[</text>
    <text x="66 74 82 90 98 106 114 122 130 138 146" y="24" style="fill:#00AAAA;opacity:0.75;">uncommitted</text>
    <text x="154" y="24" style="fill:#CCCCCC;opacity:0.75;">]</text>
    <text x="170 178 186" y="24" style="fill:#CCCCCC;opacity:0.75;">(no</text>
    <text x="202 210 218 226 234 242 250 258" y="24" style="fill:#CCCCCC;opacity:0.75;">changes)</text>
    <text x="10" y="42" style="fill:#CCCCCC;">┊</text>
    <text x="10 18 26" y="60" style="fill:#FFFFFF;font-weight:bold;">┊╭┄</text>
    <text x="42 50" y="60" style="fill:#FFFFFF;font-weight:bold;">&lt;&lt;</text>
    <text x="66 74 82 90 98 106" y="60" style="fill:#FFFFFF;font-weight:bold;">source</text>
    <text x="122 130" y="60" style="fill:#FFFFFF;font-weight:bold;">&gt;&gt;</text>
    <text x="146 154" y="60" style="fill:#000000;font-weight:bold;">&lt;&lt;</text>
    <text x="170 178 186 194" y="60" style="fill:#000000;font-weight:bold;">noop</text>
    <text x="210 218" y="60" style="fill:#000000;font-weight:bold;">&gt;&gt;</text>
    <text x="234 242" y="60" style="fill:#0000AA;font-weight:bold;">g0</text>
    <text x="258" y="60" style="fill:#FFFFFF;font-weight:bold;">[</text>
    <text x="266" y="60" style="fill:#00AA00;font-weight:bold;">A</text>
    <text x="274" y="60" style="fill:#FFFFFF;font-weight:bold;">]</text>
    <text x="10 18" y="78" style="fill:#CCCCCC;">┊●</text>
    <text x="50" y="78" style="fill:#AA00AA;opacity:0.75;">t</text>
    <text x="58 66" y="78" style="fill:#CCCCCC;opacity:0.75;">pm</text>
    <text x="82 90 98" y="78" style="fill:#CCCCCC;opacity:0.75;">add</text>
    <text x="114" y="78" style="fill:#CCCCCC;opacity:0.75;">A</text>
    <text x="10 18" y="96" style="fill:#CCCCCC;">├╯</text>
    <text x="10" y="114" style="fill:#CCCCCC;">┊</text>
    <text x="10" y="132" style="fill:#CCCCCC;">┴</text>
    <text x="26 34 42 50 58 66 74" y="132" style="fill:#CCCCCC;opacity:0.75;">0dc3733</text>
    <text x="90 98 106 114 122 130 138" y="132" style="fill:#CCCCCC;">(common</text>
    <text x="154 162 170 178 186" y="132" style="fill:#CCCCCC;">base)</text>
    <text x="202 210 218 226 234 242 250 258 266 274" y="132" style="fill:#CCCCCC;opacity:0.75;">2000-01-02</text>
    <text x="290 298 306" y="132" style="fill:#CCCCCC;">add</text>
    <text x="322" y="132" style="fill:#CCCCCC;">M</text>
    <text x="26 34 42 50" y="366" style="fill:#000000;">move</text>
    <text x="82 90 98 106 114" y="366" style="fill:#0000AA;">enter</text>
    <text x="130 138 146 154 162 170 178" y="366" style="fill:#CCCCCC;opacity:0.75;">confirm</text>
    <text x="194" y="366" style="fill:#CCCCCC;opacity:0.75;">•</text>
    <text x="210" y="366" style="fill:#0000AA;">a</text>
    <text x="226 234 242 250 258 266 274 282 290 298 306" y="366" style="fill:#CCCCCC;opacity:0.75;">above/below</text>
    <text x="322" y="366" style="fill:#CCCCCC;opacity:0.75;">•</text>
    <text x="338 346 354" y="366" style="fill:#0000AA;">↑/k</text>
    <text x="370 378" y="366" style="fill:#CCCCCC;opacity:0.75;">up</text>
    <text x="394" y="366" style="fill:#CCCCCC;opacity:0.75;">•</text>
    <text x="410 418 426" y="366" style="fill:#0000AA;">↓/j</text>
    <text x="442 450 458 466" y="366" style="fill:#CCCCCC;opacity:0.75;">down</text>
    <text x="482" y="366" style="fill:#CCCCCC;opacity:0.75;">•</text>
    <text x="498" y="366" style="fill:#0000AA;">d</text>
    <text x="514 522 530 538 546 554 562" y="366" style="fill:#CCCCCC;opacity:0.75;">details</text>
    <text x="578" y="366" style="fill:#CCCCCC;opacity:0.75;">•</text>
    <text x="594" y="366" style="fill:#0000AA;">?</text>
    <text x="610 618 626 634" y="366" style="fill:#CCCCCC;opacity:0.75;">help</text>
    <text x="650" y="366" style="fill:#CCCCCC;opacity:0.75;">•</text>
    <text x="666" y="366" style="fill:#0000AA;">q</text>
    <text x="682 690 698 706" y="366" style="fill:#CCCCCC;opacity:0.75;">quit</text>
  </g>
</svg>
