<svg xmlns="http://www.w3.org/2000/svg" width="308" height="380" viewBox="0 0 308 380">
  <rect x="0" y="0" width="308" height="380" fill="#000000" />
  <rect x="10" y="10" width="16" height="18" fill="#45475A" />
  <rect x="26" y="10" width="96" height="18" fill="#555555" />
  <rect x="122" y="10" width="8" height="18" fill="#45475A" />
  <rect x="130" y="10" width="80" height="18" fill="#0000AA" />
  <rect x="210" y="10" width="88" height="18" fill="#45475A" />
  <rect x="10" y="352" width="56" height="18" fill="#0000AA" />
  <g font-family="Menlo, Monaco, 'Courier New', monospace" font-size="14" xml:space="preserve">
    <text x="10 18 26 34" y="24" style="fill:#FFFFFF;font-weight:bold;">╭┄&lt;&lt;</text>
    <text x="50 58 66 74 82 90" y="24" style="fill:#FFFFFF;font-weight:bold;">source</text>
    <text x="106 114" y="24" style="fill:#FFFFFF;font-weight:bold;">&gt;&gt;</text>
    <text x="130 138" y="24" style="fill:#000000;font-weight:bold;">&lt;&lt;</text>
    <text x="154 162 170 178" y="24" style="fill:#000000;font-weight:bold;">noop</text>
    <text x="194 202" y="24" style="fill:#000000;font-weight:bold;">&gt;&gt;</text>
    <text x="218 226" y="24" style="fill:#0000AA;font-weight:bold;">zz</text>
    <text x="242" y="24" style="fill:#FFFFFF;font-weight:bold;">[</text>
    <text x="250 258 266 274 282 290" y="24" style="fill:#00AAAA;font-weight:bold;">uncomm</text>
    <text x="10" y="42" style="fill:#CCCCCC;">┊</text>
    <text x="10 18 26" y="60" style="fill:#CCCCCC;">┊╭┄</text>
    <text x="34 42" y="60" style="fill:#0000AA;font-weight:bold;opacity:0.75;">g0</text>
    <text x="58" y="60" style="fill:#CCCCCC;opacity:0.75;">[</text>
    <text x="66" y="60" style="fill:#00AA00;opacity:0.75;">A</text>
    <text x="74" y="60" style="fill:#CCCCCC;opacity:0.75;">]</text>
    <text x="10 18" y="78" style="fill:#CCCCCC;">┊●</text>
    <text x="50" y="78" style="fill:#AA00AA;">t</text>
    <text x="58 66" y="78" style="fill:#CCCCCC;opacity:0.75;">pm</text>
    <text x="82 90 98" y="78" style="fill:#CCCCCC;">add</text>
    <text x="114" y="78" style="fill:#CCCCCC;">A</text>
    <text x="10 18" y="96" style="fill:#CCCCCC;">├╯</text>
    <text x="10" y="114" style="fill:#CCCCCC;">┊</text>
    <text x="10" y="132" style="fill:#CCCCCC;">┴</text>
    <text x="26 34 42 50 58 66 74" y="132" style="fill:#CCCCCC;opacity:0.75;">0dc3733</text>
    <text x="90 98 106 114 122 130 138" y="132" style="fill:#CCCCCC;opacity:0.75;">(common</text>
    <text x="154 162 170 178 186" y="132" style="fill:#CCCCCC;opacity:0.75;">base)</text>
    <text x="202 210 218 226 234 242 250 258 266 274" y="132" style="fill:#CCCCCC;opacity:0.75;">2000-01-02</text>
    <text x="290" y="132" style="fill:#CCCCCC;opacity:0.75;">a</text>
    <text x="26 34 42" y="366" style="fill:#000000;">rub</text>
    <text x="74" y="366" style="fill:#0000AA;">?</text>
    <text x="90 98 106 114" y="366" style="fill:#CCCCCC;opacity:0.75;">help</text>
    <text x="130" y="366" style="fill:#CCCCCC;opacity:0.75;">•</text>
    <text x="146" y="366" style="fill:#0000AA;">q</text>
    <text x="162 170 178 186" y="366" style="fill:#CCCCCC;opacity:0.75;">quit</text>
  </g>
</svg>
