<svg xmlns="http://www.w3.org/2000/svg" fill="none" viewBox="0 0 16 16">
  <path
    d="M6.19617 8.79688V14H3.5V2H6.12023V6.58789H6.23415C6.45356 6.05664 6.80798 5.64062 7.29743 5.33984C7.78688 5.03516 8.40079 4.88281 9.13918 4.88281C9.81428 4.88281 10.4029 5.01953 10.905 5.29297C11.4113 5.5625 11.8037 5.95117 12.0822 6.45898C12.3649 6.96289 12.5041 7.56641 12.4999 8.26953V14H9.80373V8.71484C9.80795 8.16016 9.65605 7.72852 9.34804 7.41992C9.04425 7.11133 8.61809 6.95703 8.06957 6.95703C7.70249 6.95703 7.3776 7.0293 7.0949 7.17383C6.81642 7.31836 6.59701 7.5293 6.43668 7.80664C6.28056 8.08008 6.20039 8.41016 6.19617 8.79688Z"
    fill="var(--file-icon-blue, #0ea5e9)" />
</svg>