<svg width="100%" height="100%" viewBox="0 0 16 16" fill="none" xmlns="http://www.w3.org/2000/svg"><path d="M14.5 4.5V11.5C14.5 12.6046 13.6046 13.5 12.5 13.5H3.5C2.39543 13.5 1.5 12.6046 1.5 11.5V4.5C1.5 3.39543 2.39543 2.5 3.5 2.5H12.5C13.6046 2.5 14.5 3.39543 14.5 4.5Z" stroke="currentColor" stroke-width="1.5" vector-effect="non-scaling-stroke"/><path d="M3.5 11V5C3.5 4.72386 3.72386 4.5 4 4.5H7C7.27614 4.5 7.5 4.72386 7.5 5V11C7.5 11.2761 7.27614 11.5 7 11.5H4C3.72386 11.5 3.5 11.2761 3.5 11Z" fill="currentColor" vector-effect="non-scaling-stroke"/></svg>